<svg width="16" height="20" viewBox="0 0 16 20" fill="none" xmlns="http://www.w3.org/2000/svg">
<path d="M8 14.0625C9.07706 14.0613 10.1097 13.6328 10.8713 12.8713C11.6328 12.1097 12.0613 11.0771 12.0625 10V5C12.0625 3.92256 11.6345 2.88925 10.8726 2.12738C10.1108 1.36551 9.07744 0.9375 8 0.9375C6.92256 0.9375 5.88925 1.36551 5.12738 2.12738C4.36551 2.88925 3.9375 3.92256 3.9375 5V10C3.93874 11.0771 4.36715 12.1097 5.12875 12.8713C5.89035 13.6328 6.92294 14.0613 8 14.0625ZM5.8125 5C5.8125 4.41984 6.04297 3.86344 6.4532 3.4532C6.86344 3.04297 7.41984 2.8125 8 2.8125C8.58016 2.8125 9.13656 3.04297 9.5468 3.4532C9.95703 3.86344 10.1875 4.41984 10.1875 5V10C10.1875 10.5802 9.95703 11.1366 9.5468 11.5468C9.13656 11.957 8.58016 12.1875 8 12.1875C7.41984 12.1875 6.86344 11.957 6.4532 11.5468C6.04297 11.1366 5.8125 10.5802 5.8125 10V5ZM8.9375 17.1266V18.75C8.9375 18.9986 8.83873 19.2371 8.66291 19.4129C8.4871 19.5887 8.24864 19.6875 8 19.6875C7.75136 19.6875 7.5129 19.5887 7.33709 19.4129C7.16127 19.2371 7.0625 18.9986 7.0625 18.75V17.1266C5.3344 16.8969 3.74838 16.0479 2.59892 14.7372C1.44947 13.4266 0.814709 11.7433 0.8125 10C0.8125 9.75136 0.911272 9.5129 1.08709 9.33709C1.2629 9.16127 1.50136 9.0625 1.75 9.0625C1.99864 9.0625 2.2371 9.16127 2.41291 9.33709C2.58873 9.5129 2.6875 9.75136 2.6875 10C2.6875 11.409 3.24721 12.7602 4.2435 13.7565C5.23978 14.7528 6.59104 15.3125 8 15.3125C9.40896 15.3125 10.7602 14.7528 11.7565 13.7565C12.7528 12.7602 13.3125 11.409 13.3125 10C13.3125 9.75136 13.4113 9.5129 13.5871 9.33709C13.7629 9.16127 14.0014 9.0625 14.25 9.0625C14.4986 9.0625 14.7371 9.16127 14.9129 9.33709C15.0887 9.5129 15.1875 9.75136 15.1875 10C15.1853 11.7433 14.5505 13.4266 13.4011 14.7372C12.2516 16.0479 10.6656 16.8969 8.9375 17.1266Z" fill="#6F7070"/>
</svg>
